<mxfile host="app.diagrams.net" modified="2022-09-16T12:49:14.132Z" agent="5.0 (Windows)" etag="PEhh-qc0RK6Z5EGTg_Hk" version="20.3.0" type="github">
  <diagram id="C5RBs43oDa-KdzZeNtuy" name="Page-1">
    <mxGraphModel dx="612" dy="581" grid="1" gridSize="10" guides="1" tooltips="1" connect="1" arrows="1" fold="1" page="1" pageScale="1" pageWidth="827" pageHeight="1169" math="0" shadow="0">
      <root>
        <mxCell id="WIyWlLk6GJQsqaUBKTNV-0" />
        <mxCell id="WIyWlLk6GJQsqaUBKTNV-1" parent="WIyWlLk6GJQsqaUBKTNV-0" />
        <mxCell id="qpDeTW0e5TJsFj23JtPz-0" value="Editor Manager" style="swimlane;fontStyle=1;align=center;verticalAlign=top;childLayout=stackLayout;horizontal=1;startSize=26;horizontalStack=0;resizeParent=1;resizeParentMax=0;resizeLast=0;collapsible=1;marginBottom=0;" vertex="1" parent="WIyWlLk6GJQsqaUBKTNV-1">
          <mxGeometry x="240" y="160" width="300" height="370" as="geometry" />
        </mxCell>
        <mxCell id="qpDeTW0e5TJsFj23JtPz-1" value="+ field: type" style="text;strokeColor=none;fillColor=none;align=left;verticalAlign=top;spacingLeft=4;spacingRight=4;overflow=hidden;rotatable=0;points=[[0,0.5],[1,0.5]];portConstraint=eastwest;" vertex="1" parent="qpDeTW0e5TJsFj23JtPz-0">
          <mxGeometry y="26" width="300" height="124" as="geometry" />
        </mxCell>
        <mxCell id="qpDeTW0e5TJsFj23JtPz-2" value="" style="line;strokeWidth=1;fillColor=none;align=left;verticalAlign=middle;spacingTop=-1;spacingLeft=3;spacingRight=3;rotatable=0;labelPosition=right;points=[];portConstraint=eastwest;strokeColor=inherit;" vertex="1" parent="qpDeTW0e5TJsFj23JtPz-0">
          <mxGeometry y="150" width="300" height="8" as="geometry" />
        </mxCell>
        <mxCell id="qpDeTW0e5TJsFj23JtPz-3" value="+ ScanTexture(): Sprite&#xa;+ TextureToSpritesheet(Sprite): Sprite&#xa;+ CreateAssetPack(Sprite): so_AssetPack&#xa;&#xa;+ SaveAssets(): void&#xa;+ DeleteAsstes(): void&#xa;" style="text;strokeColor=none;fillColor=none;align=left;verticalAlign=top;spacingLeft=4;spacingRight=4;overflow=hidden;rotatable=0;points=[[0,0.5],[1,0.5]];portConstraint=eastwest;" vertex="1" parent="qpDeTW0e5TJsFj23JtPz-0">
          <mxGeometry y="158" width="300" height="212" as="geometry" />
        </mxCell>
        <mxCell id="qpDeTW0e5TJsFj23JtPz-4" value="&lt;div&gt;SaveAssets is supposed &lt;br&gt;&lt;/div&gt;&lt;div&gt;to execute other function&lt;/div&gt;" style="html=1;fillColor=#dae8fc;strokeColor=#6c8ebf;" vertex="1" parent="WIyWlLk6GJQsqaUBKTNV-1">
          <mxGeometry x="560" y="420" width="160" height="80" as="geometry" />
        </mxCell>
        <mxCell id="qpDeTW0e5TJsFj23JtPz-5" value="&lt;div&gt;CreateAssetPack creates &lt;br&gt;&lt;/div&gt;&lt;div&gt;scriptable object, &lt;br&gt;&lt;/div&gt;&lt;div&gt;from images from &lt;br&gt;&lt;/div&gt;&lt;div&gt;the spritesheet&lt;/div&gt;" style="html=1;fillColor=#dae8fc;strokeColor=#6c8ebf;" vertex="1" parent="WIyWlLk6GJQsqaUBKTNV-1">
          <mxGeometry x="560" y="320" width="160" height="80" as="geometry" />
        </mxCell>
        <mxCell id="qpDeTW0e5TJsFj23JtPz-6" value="&lt;div&gt;DeleteAssets is supposed &lt;br&gt;&lt;/div&gt;&lt;div&gt;to delete scriptable object &lt;br&gt;&lt;/div&gt;&lt;div&gt;and spritesheet&lt;br&gt;&lt;/div&gt;" style="html=1;fillColor=#dae8fc;strokeColor=#6c8ebf;" vertex="1" parent="WIyWlLk6GJQsqaUBKTNV-1">
          <mxGeometry x="560" y="520" width="160" height="80" as="geometry" />
        </mxCell>
      </root>
    </mxGraphModel>
  </diagram>
</mxfile>
